<svg xmlns="http://www.w3.org/2000/svg" aria-hidden="true" style="position:absolute;width:0;height:0;overflow:hidden">
  <defs>
   <symbol id="icon-facebook" viewBox="0 0 32 32">
<path d="M13.912 11.099v2.203h-1.613v2.693h1.613v8.005h3.315v-8.005h2.224c0 0 0.21-1.291 0.31-2.704h-2.522v-1.84c0-0.277 0.362-0.646 0.72-0.646h1.805v-2.805h-2.456c-3.478 0-3.397 2.696-3.397 3.099z"></path>
<path d="M6.4 3.2c-0.849 0-1.663 0.337-2.263 0.937s-0.937 1.414-0.937 2.263v19.2c0 0.849 0.337 1.663 0.937 2.263s1.414 0.937 2.263 0.937h19.2c0.849 0 1.663-0.337 2.263-0.937s0.937-1.414 0.937-2.263v-19.2c0-0.849-0.337-1.663-0.937-2.263s-1.414-0.937-2.263-0.937h-19.2zM6.4 0h19.2c1.697 0 3.325 0.674 4.525 1.875s1.875 2.828 1.875 4.526v19.2c0 1.697-0.674 3.325-1.875 4.525s-2.828 1.875-4.525 1.875h-19.2c-1.697 0-3.325-0.674-4.526-1.875s-1.875-2.828-1.875-4.525v-19.2c0-1.697 0.674-3.325 1.875-4.526s2.828-1.875 4.526-1.875v0z"></path>
</symbol>
<symbol id="icon-arrow" viewBox="0 0 55 32">
<path d="M38.558 1.576l-2.424 2.424 10.285 10.285h-44.705v3.429h44.704l-10.285 10.285 2.424 2.424 14.424-14.424-14.424-14.424z"></path>
</symbol>
<symbol id="icon-telegram" viewBox="0 0 34 32">
<path d="M31.246 1.679c-0.405 0.030-0.804 0.125-1.178 0.282h-0.005c-0.36 0.143-2.072 0.863-4.674 1.954l-9.325 3.927c-6.691 2.817-13.268 5.591-13.268 5.591l0.078-0.030c0 0-0.453 0.149-0.927 0.474-0.293 0.186-0.544 0.43-0.74 0.716-0.232 0.341-0.419 0.863-0.35 1.402 0.114 0.912 0.705 1.459 1.129 1.761 0.429 0.306 0.839 0.448 0.839 0.448h0.010l6.168 2.078c0.277 0.888 1.88 6.158 2.265 7.372 0.227 0.725 0.448 1.178 0.725 1.525 0.134 0.177 0.291 0.325 0.479 0.443 0.098 0.057 0.202 0.102 0.311 0.134l-0.063-0.015c0.019 0.005 0.034 0.020 0.048 0.025 0.051 0.014 0.085 0.019 0.149 0.029 0.976 0.296 1.761-0.311 1.761-0.311l0.044-0.035 3.642-3.316 6.104 4.682 0.139 0.059c1.272 0.558 2.56 0.248 3.241-0.301 0.686-0.552 0.952-1.258 0.952-1.258l0.044-0.114 4.717-24.163c0.134-0.596 0.168-1.155 0.020-1.696-0.152-0.548-0.504-1.020-0.986-1.323-0.405-0.246-0.875-0.365-1.348-0.341zM31.119 4.268c-0.005 0.080 0.010 0.071-0.025 0.224v0.014l-4.672 23.912c-0.020 0.034-0.054 0.109-0.148 0.183-0.099 0.078-0.177 0.128-0.587-0.035l-7.465-5.723-4.509 4.11 0.947-6.051 12.197-11.368c0.503-0.467 0.335-0.566 0.335-0.566 0.035-0.573-0.759-0.168-0.759-0.168l-15.38 9.528-0.005-0.025-7.391-2.491c0.013-0.004 0.026-0.009 0.038-0.015l0.040-0.020 0.039-0.014c0 0 6.582-2.774 13.273-5.591 3.35-1.411 6.725-2.832 9.321-3.928 1.539-0.648 3.080-1.292 4.623-1.933 0.104-0.040 0.054-0.040 0.129-0.040v-0.001z"></path>
</symbol>
<symbol id="icon-instagram" viewBox="0 0 32 32">
<path d="M9.404 0.096c1.706-0.079 2.25-0.096 6.596-0.096s4.89 0.019 6.595 0.096c1.705 0.077 2.868 0.349 3.887 0.743 1.066 0.403 2.033 1.033 2.833 1.847 0.815 0.799 1.443 1.764 1.844 2.832 0.396 1.018 0.666 2.182 0.745 3.884 0.079 1.709 0.096 2.253 0.096 6.598 0 4.346-0.019 4.89-0.096 6.596-0.077 1.702-0.349 2.865-0.745 3.884-0.401 1.068-1.031 2.035-1.844 2.835-0.8 0.815-1.767 1.443-2.833 1.844-1.018 0.396-2.182 0.666-3.884 0.745-1.708 0.079-2.252 0.096-6.598 0.096s-4.89-0.019-6.596-0.096c-1.702-0.077-2.865-0.349-3.884-0.745-1.068-0.401-2.035-1.031-2.835-1.844-0.814-0.799-1.444-1.766-1.846-2.833-0.394-1.018-0.665-2.182-0.743-3.884-0.079-1.709-0.096-2.253-0.096-6.598 0-4.346 0.019-4.89 0.096-6.595s0.349-2.868 0.743-3.887c0.403-1.068 1.033-2.034 1.847-2.833 0.799-0.814 1.765-1.444 2.832-1.846 1.018-0.394 2.182-0.665 3.884-0.743h0.001zM22.465 2.976c-1.687-0.077-2.193-0.093-6.465-0.093s-4.778 0.016-6.465 0.093c-1.561 0.071-2.407 0.332-2.972 0.551-0.746 0.291-1.28 0.636-1.84 1.196-0.531 0.516-0.939 1.145-1.196 1.84-0.22 0.564-0.48 1.411-0.551 2.972-0.077 1.687-0.093 2.193-0.093 6.465s0.016 4.778 0.093 6.465c0.071 1.561 0.332 2.407 0.551 2.972 0.256 0.694 0.665 1.324 1.196 1.84 0.516 0.531 1.146 0.94 1.84 1.196 0.564 0.22 1.411 0.48 2.972 0.551 1.687 0.077 2.192 0.093 6.465 0.093s4.778-0.016 6.465-0.093c1.561-0.071 2.407-0.332 2.972-0.551 0.746-0.291 1.28-0.636 1.84-1.196 0.531-0.516 0.94-1.146 1.196-1.84 0.22-0.564 0.48-1.411 0.551-2.972 0.077-1.687 0.093-2.193 0.093-6.465s-0.016-4.778-0.093-6.465c-0.071-1.561-0.332-2.407-0.551-2.972-0.291-0.746-0.636-1.28-1.196-1.84-0.517-0.531-1.145-0.939-1.84-1.196-0.564-0.22-1.411-0.48-2.972-0.551zM13.956 20.932c1.141 0.475 2.412 0.539 3.595 0.181s2.206-1.115 2.893-2.143c0.687-1.028 0.996-2.262 0.873-3.492s-0.668-2.38-1.543-3.252c-0.558-0.558-1.233-0.985-1.976-1.251s-1.536-0.363-2.321-0.286-1.544 0.328-2.221 0.734c-0.677 0.406-1.255 0.957-1.694 1.613s-0.726 1.401-0.842 2.182c-0.116 0.78-0.057 1.577 0.172 2.332s0.622 1.45 1.152 2.035c0.53 0.585 1.183 1.045 1.912 1.347zM10.185 10.185c0.764-0.764 1.67-1.369 2.668-1.783s2.067-0.626 3.147-0.626c1.080 0 2.149 0.213 3.147 0.626s1.904 1.019 2.668 1.783c0.764 0.764 1.369 1.67 1.783 2.668s0.626 2.067 0.626 3.147-0.213 2.149-0.626 3.147c-0.413 0.998-1.019 1.904-1.783 2.668-1.542 1.542-3.634 2.409-5.815 2.409s-4.273-0.866-5.815-2.409-2.409-3.634-2.409-5.815c0-2.181 0.866-4.273 2.409-5.815zM26.048 9.001c-0.368 0.347-0.857 0.537-1.363 0.53s-0.989-0.212-1.347-0.569c-0.358-0.358-0.562-0.841-0.569-1.347s0.183-0.995 0.53-1.363c0.178-0.189 0.393-0.341 0.631-0.446s0.495-0.161 0.755-0.165c0.26-0.004 0.518 0.045 0.759 0.142s0.46 0.243 0.644 0.427c0.184 0.184 0.329 0.403 0.427 0.644s0.146 0.499 0.142 0.759-0.060 0.517-0.165 0.755c-0.105 0.238-0.256 0.453-0.446 0.631z"></path>
</symbol>
<symbol id="icon-akar-icons_instagram-fill-1" viewBox="0 0 32 32">
<path fill="#f3c653" style="fill: var(--color1, #f3c653)" opacity="0.7" d="M9.953 1.421c1.564-0.072 2.063-0.088 6.047-0.088s4.483 0.017 6.045 0.088c1.563 0.071 2.629 0.32 3.563 0.681 0.977 0.369 1.864 0.947 2.597 1.693 0.747 0.732 1.323 1.617 1.691 2.596 0.363 0.933 0.611 2 0.683 3.56 0.072 1.567 0.088 2.065 0.088 6.048 0 3.984-0.017 4.483-0.088 6.047-0.071 1.56-0.32 2.627-0.683 3.56-0.389 1.017-0.964 1.884-1.69 2.598l-0.001 0.001c-0.733 0.747-1.62 1.323-2.597 1.691-0.933 0.363-2 0.611-3.56 0.683-1.565 0.072-2.064 0.088-6.048 0.088s-4.483-0.017-6.047-0.088c-1.56-0.071-2.627-0.32-3.56-0.683-1.017-0.389-1.884-0.964-2.598-1.69l-0.001-0.001c-0.727-0.714-1.303-1.581-1.675-2.548l-0.017-0.049c-0.361-0.933-0.609-2-0.681-3.56-0.072-1.567-0.088-2.065-0.088-6.048 0-3.984 0.017-4.483 0.088-6.045s0.32-2.629 0.681-3.563c0.39-1.016 0.966-1.883 1.692-2.596l0.001-0.001c0.714-0.727 1.58-1.303 2.547-1.675l0.049-0.017c0.933-0.361 2-0.609 3.56-0.681h0.001zM21.927 4.061c-1.547-0.071-2.011-0.085-5.927-0.085s-4.38 0.015-5.927 0.085c-1.431 0.065-2.207 0.304-2.724 0.505-0.684 0.267-1.173 0.583-1.687 1.096-0.475 0.462-0.848 1.025-1.086 1.655l-0.010 0.031c-0.201 0.517-0.44 1.293-0.505 2.724-0.071 1.547-0.085 2.011-0.085 5.927s0.015 4.38 0.085 5.927c0.065 1.431 0.304 2.207 0.505 2.724 0.235 0.636 0.609 1.213 1.096 1.687 0.473 0.487 1.051 0.861 1.687 1.096 0.517 0.201 1.293 0.44 2.724 0.505 1.547 0.071 2.009 0.085 5.927 0.085s4.38-0.015 5.927-0.085c1.431-0.065 2.207-0.304 2.724-0.505 0.684-0.267 1.173-0.583 1.687-1.096 0.487-0.473 0.861-1.051 1.096-1.687 0.201-0.517 0.44-1.293 0.505-2.724 0.071-1.547 0.085-2.011 0.085-5.927s-0.015-4.38-0.085-5.927c-0.065-1.431-0.304-2.207-0.505-2.724-0.267-0.684-0.583-1.173-1.096-1.687-0.462-0.474-1.025-0.848-1.655-1.086l-0.031-0.010c-0.517-0.201-1.293-0.44-2.724-0.505zM14.127 20.521c0.554 0.236 1.198 0.373 1.874 0.373 2.703 0 4.893-2.191 4.893-4.893 0-2.112-1.338-3.911-3.212-4.597l-0.034-0.011c-0.49-0.181-1.057-0.286-1.648-0.286-2.703 0-4.893 2.191-4.893 4.893 0 2.026 1.232 3.765 2.988 4.508l0.032 0.012zM10.669 10.669c1.364-1.364 3.249-2.208 5.331-2.208 4.163 0 7.539 3.375 7.539 7.539 0 2.082-0.844 3.966-2.208 5.331v0c-1.364 1.364-3.249 2.208-5.331 2.208-4.163 0-7.539-3.375-7.539-7.539 0-2.082 0.844-3.966 2.208-5.331v0zM25.211 9.584c0.345-0.326 0.559-0.786 0.559-1.296 0-0.984-0.798-1.782-1.782-1.782-0.474 0-0.904 0.185-1.224 0.487l0.001-0.001c-0.345 0.326-0.559 0.786-0.559 1.296 0 0.984 0.798 1.782 1.782 1.782 0.474 0 0.904-0.185 1.224-0.487l-0.001 0.001z"></path>
</symbol>
<symbol id="icon-jam_facebook-square-1" viewBox="0 0 32 32">
<path fill="#f3c653" style="fill: var(--color1, #f3c653)" opacity="0.7" d="M14.26 11.916v1.836h-1.344v2.244h1.344v6.671h2.763v-6.671h1.853s0.175-1.076 0.259-2.253h-2.101v-1.533c0-0.231 0.301-0.539 0.6-0.539h1.504v-2.337h-2.047c-2.899 0-2.831 2.247-2.831 2.583z"></path>
<path fill="#f3c653" style="fill: var(--color1, #f3c653)" opacity="0.7" d="M8 5.333c-1.473 0-2.667 1.194-2.667 2.667v0 16c0 1.473 1.194 2.667 2.667 2.667v0h16c1.473 0 2.667-1.194 2.667-2.667v0-16c0-1.473-1.194-2.667-2.667-2.667v0h-16zM8 2.667h16c2.946 0 5.333 2.388 5.333 5.333v0 16c0 2.946-2.388 5.333-5.333 5.333v0h-16c-2.946 0-5.333-2.388-5.333-5.333v0-16c0-2.946 2.388-5.333 5.333-5.333v0z"></path>
</symbol>
<symbol id="icon-la_telegram-plane-1" viewBox="0 0 32 32">
<path fill="#f3c653" style="fill: var(--color1, #f3c653)" opacity="0.7" d="M26.069 3.996c-0.342 0.025-0.66 0.105-0.953 0.23l0.019-0.007h-0.003c-0.285 0.113-1.64 0.683-3.7 1.547l-17.824 7.512s-0.36 0.117-0.733 0.373c-0.232 0.149-0.432 0.341-0.587 0.568-0.18 0.261-0.287 0.585-0.287 0.933 0 0.063 0.003 0.124 0.010 0.185l-0.001-0.007c0.091 0.721 0.559 1.155 0.893 1.393 0.341 0.243 0.665 0.355 0.665 0.355h0.008l4.883 1.645c0.219 0.703 1.488 4.875 1.793 5.836 0.18 0.573 0.355 0.933 0.573 1.207 0.107 0.14 0.231 0.257 0.379 0.352 0.077 0.045 0.16 0.080 0.247 0.107l-0.051-0.013c0.016 0.004 0.027 0.016 0.039 0.020 0.040 0.011 0.067 0.015 0.117 0.023 0.773 0.235 1.395-0.245 1.395-0.245l0.035-0.028 2.883-2.625 4.832 3.707 0.111 0.048c1.007 0.441 2.027 0.196 2.565-0.239 0.324-0.264 0.58-0.598 0.748-0.979l0.007-0.017 0.035-0.089 3.733-19.129c0.107-0.472 0.133-0.915 0.017-1.343-0.121-0.435-0.4-0.808-0.781-1.048-0.277-0.171-0.612-0.272-0.971-0.272-0.034 0-0.067 0.001-0.1 0.003l0.005-0zM25.969 6.045c-0.004 0.064 0.008 0.056-0.020 0.177v0.011l-3.699 18.931c-0.016 0.027-0.044 0.085-0.117 0.145-0.079 0.061-0.14 0.1-0.465-0.028l-5.911-4.532-3.569 3.253 0.751-4.789 9.655-9c0.399-0.369 0.267-0.448 0.267-0.448 0.027-0.453-0.601-0.133-0.601-0.133l-12.176 7.544-0.004-0.020-5.852-1.972c0.012-0.004 0.022-0.009 0.032-0.014l-0.001 0.001 0.032-0.015 0.031-0.011 10.508-4.427c2.652-1.117 5.324-2.241 7.379-3.109 1.219-0.513 2.44-1.024 3.66-1.531 0.083-0.032 0.044-0.032 0.103-0.032z"></path>
</symbol>
<symbol id="icon-entypo_location-pin-1" viewBox="0 0 32 32">
<path fill="#f3c653" style="fill: var(--color1, #f3c653)" d="M16 3.214c-4.419 0-8 3.566-8 7.984 0 7.638 8 17.6 8 17.6s8-9.963 8-17.6c0-4.416-3.581-7.984-8-7.984zM16 15.614c-2.386 0-4.32-1.934-4.32-4.32s1.934-4.32 4.32-4.32v0c2.386 0 4.32 1.934 4.32 4.32s-1.934 4.32-4.32 4.32v0z"></path>
</symbol>
<symbol id="icon-arrow2" viewBox="0 0 55 32">
<path d="M55.060 14.181h-47.414l10.909-10.909-2.571-2.571-15.298 15.298 15.298 15.298 2.571-2.571-10.909-10.909h47.414v-3.636z"></path>
</symbol>
  </defs>
</svg>